<?xml version="1.0" encoding="UTF-8" standalone="no"?>
<!-- Generator: Adobe Illustrator 19.0.0, SVG Export Plug-In . SVG Version: 6.00 Build 0)  -->

<svg
   xmlns:dc="http://purl.org/dc/elements/1.1/"
   xmlns:cc="http://creativecommons.org/ns#"
   xmlns:rdf="http://www.w3.org/1999/02/22-rdf-syntax-ns#"
   xmlns:svg="http://www.w3.org/2000/svg"
   xmlns="http://www.w3.org/2000/svg"
   xmlns:sodipodi="http://sodipodi.sourceforge.net/DTD/sodipodi-0.dtd"
   xmlns:inkscape="http://www.inkscape.org/namespaces/inkscape"
   version="1.1"
   id="Capa_1"
   x="0px"
   y="0px"
   viewBox="0 0 471.381 471.381"
   style="enable-background:new 0 0 471.381 471.381;"
   xml:space="preserve"
   sodipodi:docname="guy2.svg"
   inkscape:version="0.92.4 (5da689c313, 2019-01-14)"><metadata
   id="metadata49"><rdf:RDF><cc:Work
       rdf:about=""><dc:format>image/svg+xml</dc:format><dc:type
         rdf:resource="http://purl.org/dc/dcmitype/StillImage" /></cc:Work></rdf:RDF></metadata><defs
   id="defs47" /><sodipodi:namedview
   pagecolor="#ffffff"
   bordercolor="#666666"
   borderopacity="1"
   objecttolerance="10"
   gridtolerance="10"
   guidetolerance="10"
   inkscape:pageopacity="0"
   inkscape:pageshadow="2"
   inkscape:window-width="2736"
   inkscape:window-height="1699"
   id="namedview45"
   showgrid="false"
   inkscape:zoom="0.50065657"
   inkscape:cx="-597.21577"
   inkscape:cy="235.69051"
   inkscape:window-x="-13"
   inkscape:window-y="-13"
   inkscape:window-maximized="1"
   inkscape:current-layer="Capa_1" />
<g
   id="g6">
	<g
   id="g4">
		<circle
   cx="226.117"
   cy="68.267"
   r="68.267"
   id="circle2" />
	</g>
</g>
<g
   id="g12">
	<g
   id="g10">
		<path
   d="M397.138,200.67c-0.387-0.128-0.778-0.242-1.173-0.341l-50.381-12.595l-63.71-47.787    c-2.954-2.216-6.547-3.413-10.24-3.413h-89.651c-4.526,0.001-8.866,1.8-12.066,5l-102.4,102.4c-6.663,6.665-6.663,17.468,0,24.132    l11.264,11.264c6.149,6.152,15.941,6.696,22.733,1.263l73.404-58.726v68.267l-17.067,85.333l-41.301,41.301    c-5.755,5.753-6.648,14.768-2.133,21.538l16.043,24.064c5.222,7.847,15.817,9.975,23.663,4.753    c0.414-0.275,0.815-0.568,1.203-0.879l66.287-53.043c2.921-2.332,4.995-5.557,5.905-9.182l15.667-62.686l34.133,51.2    l27.307,68.113c3.5,8.752,13.432,13.01,22.183,9.51c0.441-0.176,0.875-0.371,1.3-0.584l37.291-18.637    c8.089-4.041,11.622-13.69,8.055-21.999l-44.937-104.67l-34.133-51.2l-2.731-51.2l36.864,17.067l52.907,13.227    c8.651,2.161,17.507-2.703,20.326-11.162l6.246-18.773C410.951,213.274,406.089,203.624,397.138,200.67z"
   id="path8" />
	</g>
</g>
<g
   id="g14">
</g>
<g
   id="g16">
</g>
<g
   id="g18">
</g>
<g
   id="g20">
</g>
<g
   id="g22">
</g>
<g
   id="g24">
</g>
<g
   id="g26">
</g>
<g
   id="g28">
</g>
<g
   id="g30">
</g>
<g
   id="g32">
</g>
<g
   id="g34">
</g>
<g
   id="g36">
</g>
<g
   id="g38">
</g>
<g
   id="g40">
</g>
<g
   id="g42">
</g>
<path
   style="stroke-width:1.99737716;fill:#ffffff"
   d="m 310.71219,466.68718 c -2.26464,-1.92248 -10.44858,-19.44763 -18.18652,-38.94478 -11.75925,-29.62964 -16.91882,-39.7275 -31.42805,-61.50824 -10.96018,-16.45307 -17.85601,-25.10577 -18.70722,-23.47325 -0.74148,1.42207 -4.73623,16.33708 -8.8772,33.14443 -4.14097,16.80735 -8.98533,32.21101 -10.76525,34.23032 -1.77991,2.01932 -18.62303,15.90655 -37.42917,30.86051 -44.6137,35.47524 -45.16257,35.52128 -64.46599,5.40756 -12.48385,-19.47503 -12.18947,-20.41921 15.03855,-48.23372 l 23.23927,-23.73985 8.75267,-43.50379 c 8.53879,-42.44074 8.73964,-44.32619 8.21942,-77.1589 l -0.53325,-33.65509 -38.94885,31.15489 c -46.132076,36.9007 -47.166535,37.2607 -62.28087,21.67432 -10.979302,-11.3222 -12.847164,-16.34557 -8.87521,-23.8687 1.623989,-3.07594 26.612548,-29.11876 55.53013,-57.87295 43.59737,-43.35102 53.77144,-52.49701 59.56825,-53.54894 3.84495,-0.69774 27.21426,-0.99031 51.9318,-0.65016 l 44.94099,0.61845 31.95803,24.13413 c 17.57692,13.27377 33.75568,25.05614 35.95279,26.18305 2.19712,1.1269 14.33118,4.53267 26.96459,7.56839 35.83331,8.61046 39.17249,12.19769 31.92161,34.29302 -8.00425,24.39105 -9.42163,24.86694 -46.35873,15.56507 -16.39029,-4.12757 -36.16313,-10.76713 -47.2583,-15.86896 -10.49232,-4.82463 -19.24717,-8.59493 -19.45521,-8.37846 -0.20805,0.21648 0.12264,11.91209 0.73485,25.99024 l 1.11312,25.59664 17.09659,25.33648 c 14.76485,21.88094 20.30673,32.82784 40.63382,80.26435 12.94548,30.21033 23.54452,56.30081 23.55343,57.97884 0.035,6.5939 -7.18051,12.50011 -28.07038,22.97677 -23.35163,11.71128 -29.05822,12.90505 -35.50971,7.42833 z"
   id="path3754"
   inkscape:connector-curvature="0" /><path
   style="fill:#ffffff;stroke-width:1.99737716"
   d="M 201.24883,130.55996 C 186.35377,124.69286 173.87956,112.80049 166.15531,97.103302 160.34412,85.293819 159.60168,81.923581 159.68839,67.747131 159.808,48.190066 164.17418,37.294567 177.67616,22.859858 191.5736,8.0023698 205.55635,1.8527443 225.49451,1.8293175 c 13.42618,-0.015779 17.98814,0.9037746 28.46696,5.7380615 27.24375,12.568606 42.13564,40.02797 38.24449,70.519562 -2.64838,20.753084 -17.62307,41.216209 -37.20105,50.835759 -13.39056,6.57939 -39.21262,7.36586 -53.75608,1.63726 z"
   id="path3756"
   inkscape:connector-curvature="0" /><path
   style="fill:#e0e0e0;stroke:none;stroke-width:1.99737716;fill-opacity:0.00392157"
   d="m 137.69101,465.33441 c -4.59406,-2.45865 -18.39332,-21.81162 -22.33137,-31.31892 -3.17579,-7.66703 0.13854,-12.92191 24.21454,-38.39228 l 20.44482,-21.6289 7.81823,-37.29373 c 7.09475,-33.84263 7.91902,-40.94424 8.90727,-76.74195 0.80988,-29.33675 0.49199,-39.4482 -1.24021,-39.4482 -1.28109,0 -13.29539,8.83341 -26.69847,19.6298 -30.67696,24.71079 -49.032841,38.24506 -54.941476,40.5098 -6.198449,2.37582 -14.24625,-1.96032 -22.142779,-11.93051 C 61.253199,255.50213 62.135316,253.51884 92.977912,220.92804 108.08308,204.9667 133.26858,179.91729 148.9457,165.26269 l 28.50385,-26.64472 h 49.96375 49.96375 l 27.39339,20.63068 c 38.66063,29.11634 41.05029,30.47643 63.43724,36.10549 38.9293,9.78854 41.38262,12.13274 34.93001,33.37651 -4.4013,14.49034 -9.58779,21.74227 -15.54665,21.73786 -11.32133,-0.008 -60.60563,-14.66259 -83.13968,-24.72078 -6.45341,-2.88051 -12.07103,-5.2373 -12.48361,-5.2373 -0.41258,0 -0.75015,11.39115 -0.75015,25.31366 v 25.31365 l 16.35408,24.96711 c 8.99475,13.7319 21.50508,36.2712 27.80071,50.08733 14.92155,32.7461 37.73767,87.6479 37.73767,90.8071 0,4.60695 -10.907,12.75992 -29.42141,21.99252 -21.43349,10.68826 -28.85313,11.56615 -33.81038,4.00044 -1.8714,-2.85613 -9.83173,-20.15841 -17.68961,-38.44951 -7.8579,-18.2911 -18.11259,-39.47091 -22.78826,-47.06623 -11.07823,-17.99599 -23.77782,-35.12606 -26.04113,-35.12606 -1.87365,0 -4.91199,9.52342 -12.08439,37.87746 -2.35194,9.29775 -5.45718,19.73131 -6.90051,23.1857 -2.65508,6.35451 -21.36048,22.94113 -53.13075,47.11259 -19.90828,15.14661 -27.03951,18.29394 -33.55261,14.80822 z"
   id="path4552"
   inkscape:connector-curvature="0" /><path
   style="fill:#a0a0a0;stroke:none;stroke-width:1.99737716"
   d="m 134.60778,462.78436 c -8.37875,-7.70045 -20.15806,-28.12865 -20.15806,-34.959 0,-4.48874 4.65699,-10.43647 22.80301,-29.12318 l 22.80301,-23.48242 8.15633,-41.2557 c 7.72087,-39.05302 8.15634,-43.18302 8.15634,-77.35465 0,-19.85444 -0.67412,-36.08881 -1.49803,-36.07639 -0.82392,0.0124 -16.7433,12.15829 -35.3764,26.99084 -37.22057,29.62877 -48.44724,36.41745 -54.69507,33.07372 -7.075697,-3.7868 -20.283623,-20.49218 -20.283623,-25.65472 0,-3.78048 10.754972,-15.82735 45.440333,-50.89866 24.99218,-25.27028 50.6552,-50.32903 57.02894,-55.6861 l 11.58862,-9.74013 h 49.07864 49.07864 l 33.87452,25.21606 33.87454,25.21607 25.30083,6.80837 c 13.91547,3.7446 27.54791,8.44029 30.2943,10.43486 6.62486,4.81132 7.20043,12.83518 1.93095,26.91913 -5.3456,14.28737 -10.66094,18.14708 -22.33835,16.22089 -15.50101,-2.55689 -54.20432,-14.44635 -70.79683,-21.74843 -8.96643,-3.94597 -16.96553,-7.17449 -17.77576,-7.17449 -0.81024,0 -0.84445,11.90907 -0.0761,26.4646 l 1.39712,26.4646 15.64306,23.96918 c 8.60368,13.18304 17.98197,28.62961 20.84065,34.3257 6.25247,12.45841 33.84378,76.57136 40.38405,93.83901 l 4.66488,12.31617 -4.02024,5.11092 c -5.49483,6.98561 -42.27589,25.18459 -50.89926,25.18459 -6.25425,0 -7.23007,-0.89254 -12.55654,-11.48491 -3.1764,-6.31671 -10.40274,-22.72017 -16.05851,-36.45214 -13.0188,-31.60905 -41.0735,-77.85576 -47.2487,-77.88702 -1.16206,-0.006 -4.59506,9.65162 -7.62887,21.46112 -12.4813,48.58498 -8.29641,42.05144 -46.67942,72.87704 -39.83206,31.98935 -45.0793,34.51244 -54.249,26.08507 z"
   id="path4554"
   inkscape:connector-curvature="0" /><path
   style="fill:#a0a0a0;stroke:none;stroke-width:1.99737716"
   d="m 203.07744,130.20553 c -16.53152,-5.3251 -35.6906,-27.07409 -40.97629,-46.515431 -3.02962,-11.143262 -0.85982,-32.867994 4.29119,-42.964804 6.16034,-12.075283 19.26374,-25.492079 30.86834,-31.6066529 8.84597,-4.6610214 12.3687,-5.3049285 29.04216,-5.3085126 16.01854,-0.00344 20.32868,0.7174042 27.6625,4.6263955 13.29076,7.084096 25.60276,19.557668 31.60981,32.024619 7.36764,15.29072 7.84322,38.366514 1.09347,53.056732 -7.08438,15.418494 -17.08396,26.143854 -30.73428,32.964994 -11.02225,5.50789 -14.06701,6.12189 -29.45118,5.93906 -9.43692,-0.11215 -19.96949,-1.10953 -23.40572,-2.2164 z"
   id="path4556"
   inkscape:connector-curvature="0" /><path
   style="fill:#a0a0a0;stroke:none;stroke-width:1.99737716"
   d="m 143.41168,466.57779 c -7.91428,-1.56266 -23.05619,-20.71759 -26.85907,-33.97746 -2.16837,-7.56067 -0.86486,-9.51816 23.49711,-35.28574 10.36745,-10.96562 19.61243,-21.75146 20.54438,-23.96853 1.40477,-3.34185 12.47773,-58.95913 13.72656,-68.94578 0.20606,-1.64784 0.81119,-21.19202 1.34472,-43.43151 0.92258,-38.45595 0.79242,-40.36981 -2.65886,-39.09498 -1.99591,0.73725 -17.34807,12.02635 -34.11592,25.0869 -31.02656,24.16672 -44.970606,33.40388 -50.490262,33.447 -3.409381,0.0266 -18.163408,-14.48788 -21.639064,-21.28778 -1.905168,-3.72734 -1.135711,-5.68483 5.495974,-13.98164 C 85.843165,228.1411 177.80478,138.6179 181.67758,138.61928 c 2.02346,7.2e-4 24.12765,-0.22399 49.12042,-0.49935 24.99276,-0.27535 45.66561,0.0357 45.93967,0.69116 1.35178,3.23324 68.71994,51.66357 70.77091,50.87654 1.30546,-0.50095 2.65633,-0.25192 3.00193,0.5534 0.92887,2.16433 25.52758,8.57606 27.71519,7.22405 1.03135,-0.63741 1.87518,-0.27848 1.87518,0.79763 0,1.0761 2.50805,2.50741 5.57344,3.18068 3.06539,0.67327 8.45831,2.97853 11.98426,5.12279 5.46812,3.32536 6.41082,5.05346 6.41082,11.75193 0,8.44224 -5.6955,23.77822 -10.21332,27.50091 -3.24065,2.67028 -15.36683,3.80445 -19.88048,1.85942 -1.72106,-0.74164 -5.76575,-1.54022 -8.9882,-1.77462 -3.22244,-0.23439 -6.30839,-0.93343 -6.85767,-1.55342 -1.12574,-1.27064 -41.84595,-14.65909 -44.94099,-14.7762 -1.09855,-0.0416 -2.44678,-0.64866 -2.99606,-1.34911 -1.15205,-1.46911 -15.71634,-7.71466 -17.9902,-7.71466 -1.55324,0 -1.31555,46.3792 0.26679,52.05556 0.47833,1.7159 7.67438,13.84997 15.99124,26.96459 8.31686,13.11463 16.72846,26.99065 18.69244,30.8356 1.964,3.84495 4.42107,7.54072 5.46017,8.21281 1.03911,0.67212 1.60459,1.57094 1.25663,1.99738 -1.24667,1.5279 6.65488,19.75047 8.56403,19.75047 1.07253,0 1.43619,0.83146 0.80812,1.84769 -1.38558,2.24196 2.87119,12.13395 5.22156,12.13395 0.92221,0 1.57032,0.67411 1.44023,1.49803 -0.63638,4.03041 0.48061,8.46153 2.73325,10.8429 1.3732,1.45168 2.50282,3.53822 2.51025,4.63677 0.026,3.82921 7.53255,20.97246 9.18334,20.97246 0.91484,0 1.19043,1.23234 0.61245,2.73853 -0.57796,1.50618 0.12444,3.97793 1.56073,5.49278 1.43638,1.51486 2.66173,3.65309 2.72299,4.75164 0.0613,1.09856 0.84191,4.50535 1.73476,7.57064 2.09014,7.17574 -1.63813,11.41449 -18.17306,20.66133 -17.40135,9.7314 -33.82334,15.27117 -38.24873,12.90278 -1.93796,-1.03716 -5.66011,-6.44737 -8.27146,-12.02271 -2.61135,-5.57532 -5.54612,-10.13695 -6.52171,-10.13695 -0.97562,0 -1.27873,-0.80113 -0.67356,-1.7803 1.05266,-1.70323 -6.11453,-20.11271 -8.63834,-22.18823 -0.6679,-0.54928 -1.52142,-2.79633 -1.89669,-4.99344 -0.37528,-2.19712 -1.5044,-4.29622 -2.50916,-4.6647 -1.00478,-0.36847 -1.31881,-1.492 -0.69785,-2.49672 0.62095,-1.00472 0.1241,-1.82678 -1.10413,-1.82678 -1.22822,0 -1.67763,-0.89882 -0.99868,-1.99738 0.67894,-1.09855 0.13282,-1.99737 -1.21371,-1.99737 -1.34649,0 -1.84813,-0.60001 -1.11478,-1.33337 1.48158,-1.4816 -9.91032,-22.78758 -13.42119,-25.1013 -1.27816,-0.84231 -1.37586,-1.50754 -0.22934,-1.56155 1.09856,-0.0517 0.36458,-1.33191 -1.63104,-2.84476 -1.99562,-1.51286 -3.34385,-3.16874 -2.99607,-3.67975 0.87729,-1.28897 -11.59036,-20.28576 -15.3751,-23.42682 -2.57192,-2.1345 -3.55199,-1.93811 -5.82222,1.16661 -3.31002,4.52671 -11.55299,34.50207 -10.12372,36.81468 0.56041,0.90677 0.0955,1.95649 -1.03322,2.33273 -1.12869,0.37623 -2.25781,3.59708 -2.50917,7.15744 -0.25135,3.56037 -0.92672,6.47518 -1.50083,6.47736 -0.5741,0.002 -2.79361,3.25315 -4.93225,7.22435 -3.73645,6.93817 -39.69043,37.49115 -61.93475,52.63091 -5.49279,3.73845 -10.43629,7.34643 -10.98557,8.01773 -0.54928,0.67128 -2.79633,0.86558 -4.99345,0.43177 z"
   id="path840"
   inkscape:connector-curvature="0" /><path
   style="fill:#a0a0a0;stroke:none;stroke-width:1.99737716"
   d="m 312.75166,464.68979 c -4.03954,-4.62396 -15.53221,-26.78484 -15.53766,-29.96065 -0.002,-1.3732 -0.95614,-2.49673 -2.11954,-2.49673 -1.16339,0 -1.67404,-0.7139 -1.13479,-1.58643 1.14614,-1.85447 -5.75176,-17.9273 -9.5902,-22.34618 -1.44854,-1.66759 -3.65536,-6.21919 -4.90404,-10.11468 -2.94302,-9.1813 -23.07706,-43.25913 -29.72352,-50.30847 l -5.14735,-5.4594 -3.53824,5.81818 c -4.49327,7.38858 -9.14006,24.46546 -10.21991,37.55797 -0.11326,1.37319 -0.95494,2.49672 -1.8704,2.49672 -0.91547,0 -1.66448,1.38404 -1.66448,3.07564 0,5.48538 -7.46487,17.72183 -15.31043,25.09696 -9.55283,8.98001 -42.47663,34.98848 -54.95765,43.41431 -14.26914,9.63295 -16.59022,8.95011 -31.99568,-9.41308 -2.96503,-3.53427 -5.46803,-7.05989 -5.56222,-7.83465 -0.0942,-0.77478 -1.16889,-4.73852 -2.38823,-8.80833 -2.80327,-9.35643 -1.10536,-12.10439 22.65432,-36.66452 9.70842,-10.03548 17.65168,-19.28172 17.65168,-20.54715 0,-1.26546 0.99499,-2.30082 2.21108,-2.30082 1.21609,0 1.70475,-1.31945 1.08592,-2.93209 -0.61883,-1.61267 -0.18729,-3.51175 0.959,-4.22018 1.14628,-0.70845 1.64082,-2.98338 1.09897,-5.05542 -0.54185,-2.07204 -0.0924,-4.31909 0.99869,-4.99345 1.09113,-0.67435 1.54054,-2.9214 0.99869,-4.99344 -0.54185,-2.07204 -0.0924,-4.31909 0.99868,-4.99344 1.09113,-0.67436 1.54054,-2.92141 0.99869,-4.99344 -0.54185,-2.07204 -0.0924,-4.31909 0.99869,-4.99345 1.09113,-0.67435 1.54054,-2.92141 0.99869,-4.99345 -0.54185,-2.07204 -0.1845,-4.26219 0.79412,-4.86701 0.97861,-0.60481 1.75344,-3.07746 1.72183,-5.49477 -0.0316,-2.41731 0.54152,-7.09157 1.2736,-10.38724 1.43019,-6.43848 3.58903,-82.57678 2.49791,-88.09685 -0.49301,-2.49419 -7.63163,2.05736 -28.62013,18.24806 -37.63988,29.03571 -52.289627,38.88944 -57.817769,38.88944 -2.855171,0 -7.344964,-2.99986 -11.693162,-7.81279 -9.407606,-10.4131 -11.883118,-15.42768 -10.213296,-20.68882 1.493358,-4.70516 100.278297,-104.58623 108.818087,-110.02555 4.30794,-2.7439 12.62124,-3.34134 52.12742,-3.74619 l 47.00208,-0.48166 15.28405,11.50371 c 8.40625,6.32704 15.28407,10.83292 15.28407,10.01307 0,-0.81985 1.40973,0.52203 3.13273,2.98196 1.723,2.45993 3.97005,3.95511 4.99344,3.32262 1.0234,-0.63249 1.86072,-0.35049 1.86072,0.62668 0,1.91893 15.89155,13.90351 18.65764,14.07061 0.92395,0.0558 2.91771,1.73428 4.43056,3.72991 1.51286,1.99563 2.77923,2.78251 2.81419,1.74862 0.035,-1.03388 1.18704,-0.40036 2.56024,1.40782 1.37319,1.80819 4.74377,3.57567 7.49016,3.92774 2.74639,0.35208 6.17677,1.3815 7.62305,2.2876 1.44628,0.90611 3.16123,1.11585 3.81098,0.4661 0.64974,-0.64975 2.1629,-0.41497 3.36252,0.52173 1.19964,0.9367 8.73475,3.66252 16.74471,6.05737 18.68774,5.58735 22.72097,9.48773 21.96356,21.24021 -0.31588,4.90139 -1.32334,8.91234 -2.2388,8.91322 -0.91548,8.9e-4 -1.29646,1.10567 -0.84667,2.45509 0.81395,2.44183 -0.31604,4.33228 -6.9764,11.67132 -4.24191,4.67417 -14.04601,4.9831 -29.30066,0.92327 -5.9537,-1.58451 -11.57133,-2.41961 -12.48361,-1.8558 -0.91228,0.56382 -1.65868,0.21554 -1.65868,-0.77397 0,-2.34055 -15.46747,-6.97809 -18.01748,-5.40209 -1.07597,0.66498 -1.95629,0.32861 -1.95629,-0.7475 0,-1.7783 -10.09317,-5.02331 -13.22573,-4.25214 -0.71938,0.17709 -1.85787,-0.47287 -2.52998,-1.44438 -1.70143,-2.45938 -20.79597,-10.4247 -22.48614,-9.38013 -0.76018,0.46983 -1.37789,12.02673 -1.37265,25.682 l 0.01,24.82778 15.95246,25.46777 c 8.77386,14.00728 17.36861,28.21838 19.09946,31.58023 1.73084,3.36186 4.94912,7.6854 7.15173,9.60787 2.2026,1.92248 3.0407,3.49541 1.86241,3.49541 -1.35882,0 -0.99453,2.92193 0.99607,7.98951 1.72609,4.39423 3.90084,7.98951 4.83276,7.98951 0.93191,0 1.69439,2.04705 1.69439,4.54901 0,2.50197 1.55232,6.76525 3.44959,9.474 1.89727,2.70874 3.64288,6.24192 3.87911,7.85151 0.49127,3.34722 7.00941,18.56759 8.59519,20.0704 0.5796,0.54928 1.30405,2.34692 1.60991,3.99475 0.30583,1.64784 1.35955,4.79371 2.34158,6.99082 0.98203,2.19712 3.33688,8.29349 5.23297,13.54753 1.89611,5.25403 4.17751,10.00395 5.06978,10.5554 4.95302,3.06114 -17.51154,18.29294 -40.60532,27.53189 -15.65554,6.26322 -16.03716,6.29751 -19.97055,1.79502 z"
   id="path842"
   inkscape:connector-curvature="0" /><path
   style="fill:#a0a0a0;stroke:none;stroke-width:1.99737716"
   d="m 224.30546,130.62846 c -15.15353,-0.6888 -23.85001,-2.02919 -28.02616,-4.31968 -8.05923,-4.42026 -24.03371,-21.68235 -28.25302,-30.530331 -1.86083,-3.9022 -4.78979,-7.108671 -6.5088,-7.125493 -1.81563,-0.01777 -2.28839,-0.645572 -1.12809,-1.498033 1.09856,-0.807096 2.05031,-9.107415 2.115,-18.445153 0.14609,-21.086273 4.49634,-31.768781 18.73611,-46.008548 14.32789,-14.3278918 23.08605,-17.8099561 44.93106,-17.863655 13.96027,-0.034317 19.68272,0.8457032 26.2862,4.042389 10.91164,5.282235 33.46971,27.216584 33.91127,32.97364 0.50961,6.644247 3.59194,18.866665 4.75791,18.866665 0.7679,0 0.9858,2.796037 0.48423,6.213415 -0.57986,3.950888 0.0916,6.849019 1.84397,7.958923 2.1821,1.382079 2.02812,1.751878 -0.73951,1.776094 -2.27102,0.01977 -3.51078,1.604801 -3.53928,4.524684 -0.12342,12.644502 -17.78817,36.259673 -32.82308,43.879623 -4.4436,2.25209 -8.52869,4.64809 -9.07797,5.32443 -0.54928,0.67635 -10.88571,0.78031 -22.96984,0.23103 z"
   id="path844"
   inkscape:connector-curvature="0" /><path
   style="fill:#a0a0a0;stroke:none;stroke-width:1.99737716"
   d="m 312.75166,464.68979 c -4.03954,-4.62396 -15.53221,-26.78484 -15.53766,-29.96065 -0.002,-1.3732 -0.75329,-2.49673 -1.66875,-2.49673 -0.91548,0 -1.67356,-1.12352 -1.68465,-2.49672 -0.018,-2.28703 -4.63331,-12.5783 -10.07628,-22.47049 -1.20894,-2.19711 -4.67207,-9.16297 -7.69588,-15.47967 -3.02381,-6.31671 -6.24969,-11.48492 -7.16861,-11.48492 -0.91891,0 -1.67076,-1.33473 -1.67076,-2.96607 0,-4.95239 -12.15462,-23.1303 -14.49774,-21.68219 -1.34151,0.82912 -1.70771,0.156 -0.9663,-1.77604 0.70383,-1.83415 -0.65875,-4.85151 -3.31973,-7.35139 l -4.51356,-4.24027 -2.55914,5.52568 c -4.8173,10.40148 -8.17128,21.21403 -9.17553,29.57998 -0.55241,4.60188 -3.59826,13.72184 -6.76857,20.26655 -6.34648,13.10155 -15.52174,22.18742 -46.58337,46.12956 -10.71094,8.25594 -19.47443,15.8279 -19.47443,16.82661 0,0.99869 -0.7664,1.34213 -1.70312,0.76321 -0.93671,-0.57891 -3.40847,0.23827 -5.49279,1.81598 -8.16224,6.17835 -14.47999,3.20953 -27.7874,-13.05783 -5.41428,-6.61857 -9.72469,-20.33236 -8.04959,-25.61015 0.74805,-2.35689 9.61294,-13.11664 19.69977,-23.91055 22.12412,-23.67501 25.95804,-28.34086 24.49217,-29.80672 -0.61841,-0.6184 -0.1328,-2.31915 1.07913,-3.77945 1.21192,-1.46028 1.69279,-3.98595 1.06859,-5.61259 -0.6242,-1.62665 -0.19704,-3.53718 0.94924,-4.24561 1.14628,-0.70845 1.64082,-2.98338 1.09897,-5.05542 -0.54185,-2.07204 -0.0924,-4.31909 0.99868,-4.99344 1.09113,-0.67436 1.54054,-2.92141 0.99869,-4.99344 -0.54185,-2.07204 -0.18449,-4.26221 0.79412,-4.86701 0.97861,-0.60483 1.75344,-3.07748 1.72184,-5.49479 -0.0316,-2.41731 0.50592,-7.09157 1.1945,-10.38724 2.94506,-14.09563 6.62655,-98.87017 4.29362,-98.87017 -2.53265,0 -15.35642,8.50456 -15.35642,10.18418 0,0.99005 -0.90459,1.80009 -2.01021,1.80009 -1.10562,0 -11.71973,7.55085 -23.58691,16.77967 -26.68404,20.75155 -39.79511,29.16 -45.468396,29.16 -2.547239,0 -7.314061,-3.25875 -11.428365,-7.81279 -9.420758,-10.42766 -11.882575,-15.42739 -10.20492,-20.72528 1.492375,-4.7128 100.243781,-104.5816 108.713611,-109.94374 4.13973,-2.62081 13.32466,-3.31098 51.93105,-3.9022 l 46.90181,-0.71826 14.37542,10.63113 c 7.9065,5.84712 15.22593,10.63113 16.26543,10.63113 1.03951,0 2.40735,1.34823 3.0397,2.99607 0.63233,1.64783 2.02125,2.99606 3.08649,2.99606 1.06522,0 4.7709,2.58856 8.23479,5.75234 3.46391,3.16379 8.68759,6.98231 11.60819,8.4856 2.92061,1.50329 6.03955,3.87715 6.93098,5.27524 0.89143,1.3981 2.46437,2.02063 3.49541,1.38341 1.03105,-0.63721 1.87462,-0.29464 1.87462,0.76129 0,1.05592 2.69646,2.85985 5.99213,4.00873 3.29567,1.14888 5.99213,1.57616 5.99213,0.94952 0,-0.62665 1.25362,-0.099 2.78583,1.17267 1.5322,1.27161 3.55455,2.09382 4.49409,1.82712 3.48892,-0.99037 35.29404,10.96065 38.98066,14.64729 2.85453,2.85452 3.67823,6.08275 3.24949,12.73541 -0.31588,4.90139 -1.32334,8.91234 -2.2388,8.91322 -0.91548,8.9e-4 -1.29646,1.10567 -0.84667,2.45509 0.81395,2.44183 -0.31604,4.33228 -6.9764,11.67132 -4.02062,4.43032 -12.27176,4.92576 -27.53144,1.65315 -5.63806,-1.20915 -11.29993,-2.41927 -12.58192,-2.68916 -1.282,-0.26989 -5.02736,-1.61527 -8.32303,-2.98973 -3.29568,-1.37446 -8.01384,-2.6361 -10.48482,-2.80363 -2.47099,-0.16754 -4.49333,-0.938 -4.49409,-1.71213 -7.8e-4,-0.77414 -3.07756,-1.98462 -6.83731,-2.68995 -3.75974,-0.70533 -11.10262,-3.44252 -16.31753,-6.08264 -5.21489,-2.64012 -10.62247,-4.80022 -12.01682,-4.80022 -3.45966,0 -5.15161,13.37333 -4.31665,34.1194 0.61953,15.3935 1.36491,18.19361 7.30868,27.4562 3.64034,5.67298 7.37176,9.84915 8.29205,9.28038 0.92028,-0.56876 1.60663,0.55825 1.5252,2.50446 -0.1482,3.54142 17.42504,33.87969 24.08713,41.58392 1.94519,2.24947 3.17148,5.18567 2.72506,6.5249 -0.44641,1.33922 0.91878,5.36779 3.03374,8.95236 2.11494,3.58459 4.51417,9.18214 5.3316,12.43903 0.81742,3.25688 2.4956,7.13782 3.72926,8.62431 1.23368,1.48647 2.50941,4.44798 2.83494,6.58112 0.32553,2.13314 2.57386,7.6631 4.99628,12.2888 2.42242,4.62571 4.4731,8.85979 4.55705,9.40907 0.4324,2.82868 11.82426,31.26604 13.27224,33.13133 3.43778,4.42851 -18.51743,19.32043 -40.9108,27.74928 -15.90765,5.98762 -15.82682,5.98133 -19.70902,1.53742 z"
   id="path846"
   inkscape:connector-curvature="0" /><path
   style="fill:#a0a0a0;stroke:none;stroke-width:1.99737716"
   d="m 224.30546,130.62846 c -15.25351,-0.69334 -23.80323,-2.01842 -27.96328,-4.3339 -7.7232,-4.29872 -21.06657,-18.29747 -27.75875,-29.122165 -2.88645,-4.668869 -5.93265,-8.488853 -6.76933,-8.488853 -3.05268,0 1.17161,-37.46906 5.26843,-46.730607 5.04051,-11.394913 21.54193,-28.128378 32.75966,-33.2203305 12.65903,-5.7461865 40.95057,-5.4971986 53.29396,0.4690289 9.34971,4.5192176 32.77042,26.2032006 30.62218,28.3514396 -0.65782,0.657822 -0.14741,1.196039 1.13424,1.196039 1.28165,0 2.16151,0.674115 1.95525,1.498033 -0.71266,2.846772 2.72512,18.457974 4.2757,19.41629 0.85565,0.528816 1.12108,3.23515 0.58985,6.014075 -0.53122,2.778927 0.0762,6.30825 1.34992,7.842943 1.68818,2.034123 1.70975,2.992365 0.0796,3.535741 -1.77907,0.593023 -7.67483,14.372439 -10.42869,24.373656 -1.0421,3.78463 -18.88267,19.71409 -26.45073,23.6173 -4.39423,2.26631 -8.43891,4.67394 -8.98819,5.35028 -0.54928,0.67635 -10.88571,0.78031 -22.96984,0.23103 z"
   id="path848"
   inkscape:connector-curvature="0" /><path
   style="fill:#a0a0a0;stroke:none;stroke-width:1.99737716"
   d="m 224.30546,130.62846 c -15.15353,-0.6888 -23.85001,-2.02919 -28.02616,-4.31968 -7.27876,-3.9922 -22.27602,-19.77988 -28.62632,-30.135074 -2.52634,-4.11959 -5.25552,-7.490164 -6.06485,-7.490164 -1.50453,0 -1.26787,-8.586126 0.76642,-27.805404 2.27321,-21.476612 16.09121,-41.301074 35.5444,-50.9950111 8.71454,-4.3426344 12.86663,-5.0829896 28.29672,-5.0455599 13.50804,0.032767 20.22542,1.0161313 26.54873,3.8864943 8.93593,4.0563217 33.28323,26.5597197 31.09909,28.7438537 -0.70466,0.704659 -0.31692,1.281197 0.86165,1.281197 1.17856,0 2.7608,4.493094 3.51608,9.984655 0.75529,5.491561 2.19116,10.490153 3.19083,11.107984 0.99967,0.617833 1.26451,3.326967 0.58852,6.0203 -0.69112,2.753663 -0.15018,6.196939 1.23593,7.8671 1.35574,1.633571 1.57654,2.970128 0.49067,2.970128 -1.08587,0 -4.0226,5.617623 -6.52607,12.483607 -2.50346,6.865984 -4.23605,12.483604 -3.8502,12.483604 2.22107,0 -19.84648,19.76456 -24.95092,22.34701 -3.37218,1.70606 -7.47947,4.11707 -9.12731,5.35779 -2.00406,1.50894 -10.27073,1.92519 -24.96721,1.25717 z"
   id="path850"
   inkscape:connector-curvature="0" /><path
   style="fill:#a0a0a0;stroke:none;stroke-width:1.99737716"
   d="m 233.29366,132.87041 c 0,-1.44216 -4.94143,-2.24195 -13.85161,-2.24195 -7.61839,0 -16.18199,-0.886 -19.03021,-1.9689 -7.3843,-2.8075 -23.79014,-18.70016 -31.16036,-30.18565 -3.45535,-5.384704 -6.88603,-9.790368 -7.62372,-9.790368 -1.91727,0 -0.5656,-25.295338 1.92116,-35.952789 4.23714,-18.159063 19.20761,-36.238377 36.51436,-44.0971332 11.64037,-5.285731 40.89537,-5.2597522 52.58341,0.046695 8.12291,3.6878562 35.44848,28.0405792 31.53254,28.1020062 -1.13306,0.01778 -1.06825,0.645291 0.1547,1.498033 2.37386,1.655238 6.85026,18.147905 7.55494,27.835099 0.25581,3.516632 1.10044,7.029211 1.87696,7.80573 0.77652,0.77652 0.32412,2.722491 -1.00533,4.324383 -2.20989,2.66275 -5.99195,11.609196 -8.98291,21.249043 -3.01315,9.711361 -33.17437,32.800071 -41.09455,31.458291 -1.9995,-0.33874 -4.93008,0.45856 -6.51241,1.77178 -2.04066,1.69359 -2.87697,1.73595 -2.87697,0.14573 z"
   id="path852"
   inkscape:connector-curvature="0" /><path
   style="fill:#a0a0a0;stroke:none;stroke-width:1.99737716"
   d="m 230.29759,132.51529 c -2.19711,-0.88333 -8.65504,-1.66923 -14.35095,-1.74644 -5.69592,-0.0772 -12.71241,-1.03621 -15.59221,-2.13111 -7.14631,-2.71702 -25.7709,-20.64038 -32.47461,-31.25191 -3.02118,-4.78233 -5.99669,-8.696752 -6.61225,-8.698717 -1.7409,-0.0056 -0.11565,-25.93038 2.25412,-35.95636 2.87347,-12.156947 9.93399,-23.771841 19.9527,-32.823148 13.17408,-11.9019935 22.07879,-15.0261716 42.82845,-15.0261716 22.23664,0 29.70005,3.054941 46.79629,19.1547696 10.88892,10.254282 12.81813,13.212787 15.45519,23.701107 1.65725,6.591344 3.33419,14.756403 3.72653,18.144573 0.39234,3.388173 0.9101,6.983452 1.15058,7.989509 0.24047,1.006059 -1.37735,5.873887 -3.59517,10.817395 -2.21782,4.943509 -4.73633,11.2116 -5.59669,13.92909 -3.09552,9.777343 -33.35759,34.034043 -40.43708,32.412533 -1.36077,-0.31168 -4.05723,0.25628 -5.99214,1.26213 -1.9349,1.00584 -5.31564,1.10608 -7.51276,0.22275 z"
   id="path854"
   inkscape:connector-curvature="0" /><path
   style="fill:#a0a0a0;stroke:none;stroke-width:1.99737716"
   d="m 222.30808,132.0752 c -6.59134,-0.94599 -14.89634,-2.14694 -18.45556,-2.66877 -7.78416,-1.14127 -27.5551,-18.69674 -35.8588,-31.840566 -3.08382,-4.881348 -6.11855,-8.876786 -6.74383,-8.878751 -0.62529,-0.002 -0.89639,-4.272965 -0.60245,-9.491113 0.29393,-5.218148 0.80553,-14.43105 1.13688,-20.473116 0.33134,-6.042066 1.09501,-11.434984 1.69703,-11.984263 0.60203,-0.549279 3.47345,-5.118558 6.38095,-10.153952 6.46597,-11.198198 19.14081,-22.928779 30.20098,-27.9510492 6.12506,-2.7813047 12.91457,-3.7521864 26.23956,-3.7521864 22.26217,0 29.76199,3.0767054 46.69197,19.1547696 11.09635,10.537988 12.71728,13.123566 16.11065,25.698484 4.35402,16.134853 5.51411,25.073367 3.64637,28.095433 -0.72305,1.169921 -3.27455,7.46112 -5.67,13.980441 -2.92695,7.965792 -7.23132,14.615839 -13.12432,20.276469 -9.78632,9.4004 -26.36072,19.81244 -30.15502,18.94338 -1.36077,-0.31168 -4.05723,0.1829 -5.99214,1.09905 -1.9349,0.91615 -8.91092,0.89173 -15.50227,-0.0543 z"
   id="path856"
   inkscape:connector-curvature="0" /><path
   style="fill:#a0a0a0;stroke:none;stroke-width:1.99737716"
   d="m 222.30808,132.23704 c -6.59134,-0.90505 -14.83983,-2.11506 -18.32996,-2.68891 -7.74341,-1.27318 -23.23215,-14.82625 -35.74109,-31.274412 l -9.14338,-12.02276 1.95213,-18.258135 c 1.07368,-10.041975 1.53688,-18.932251 1.02934,-19.756169 -0.50754,-0.823918 -0.13741,-1.498033 0.82252,-1.498033 0.95992,0 3.24973,-3.154791 5.08846,-7.010648 5.2434,-10.995527 19.41676,-25.108417 30.35346,-30.2239665 8.14642,-3.8104206 13.31947,-4.6748774 28.07045,-4.6907937 22.07148,-0.023815 32.45246,4.3691722 48.33795,20.4554912 8.84268,8.954464 11.09601,12.817571 14.31272,24.537631 4.71298,17.171731 5.3397,24.448074 2.66041,30.887698 -1.14267,2.746394 -3.70669,9.038132 -5.69781,13.98164 -1.99112,4.943509 -6.34619,11.987077 -9.67793,15.652387 -6.1901,6.80982 -28.60858,21.68266 -31.38718,20.82284 -0.84648,-0.26194 -3.59258,0.24554 -6.10244,1.12772 -2.50986,0.88218 -9.9563,0.86347 -16.54765,-0.0416 z"
   id="path858"
   inkscape:connector-curvature="0" /><path
   style="fill:#a0a0a0;stroke:none;stroke-width:1.99737716"
   d="m 222.30808,132.32168 c -6.59134,-0.85596 -15.00806,-2.09649 -18.70381,-2.75674 -7.81462,-1.39608 -22.41021,-14.27589 -35.64643,-31.456039 L 159.06152,86.5618 160.46034,71.144309 c 0.76935,-8.479619 1.57788,-17.21513 1.79673,-19.412245 0.53712,-5.392261 9.95419,-20.239207 18.83805,-29.700064 11.80792,-12.5748294 23.99191,-17.2036637 45.20772,-17.1749208 22.25772,0.030154 30.49525,3.3902413 47.06995,19.1998298 9.44229,9.006412 12.5806,13.585305 14.98873,21.868985 4.10645,14.125697 6.53638,30.241178 4.85278,32.18405 -0.7556,0.871971 -3.44938,6.978319 -5.98616,13.569663 -2.53679,6.591345 -7.39574,14.975543 -10.79767,18.631553 -6.39595,6.87362 -28.75671,21.68006 -31.4723,20.83974 -0.84648,-0.26194 -3.59258,0.2445 -6.10244,1.12542 -2.50986,0.88091 -9.9563,0.90133 -16.54765,0.0454 z"
   id="path860"
   inkscape:connector-curvature="0" /><path
   style="fill:#ffffff;stroke:none;stroke-width:1.99737716"
   d="m 215.31461,132.1265 c 0.001,-0.82392 -2.73844,-1.49804 -6.08867,-1.49804 -3.35023,0 -8.51844,-1.27898 -11.48492,-2.84219 -6.0043,-3.16401 -22.23769,-19.60823 -32.17285,-32.590696 l -6.48058,-8.468295 1.54857,-18.496296 c 0.85172,-10.172964 1.59929,-18.945706 1.66127,-19.494985 0.35224,-3.121357 10.83891,-18.200244 17.87376,-25.700857 12.72792,-13.5705967 24.49497,-18.207375 46.13165,-18.1780618 22.22372,0.030108 30.49859,3.3934247 46.94524,19.0808688 12.38637,11.814595 14.23182,15.483006 18.81944,37.409522 l 2.81387,13.448877 -6.69891,15.405521 c -5.11899,11.772152 -9.31967,17.844722 -17.81092,25.747772 -6.1116,5.68823 -11.112,9.94666 -11.112,9.46318 0,-0.48349 -2.92116,0.6679 -6.49148,2.55864 -3.57031,1.89074 -7.8397,3.71151 -9.48754,4.04615 -6.92265,1.40584 -27.96836,1.48778 -27.96593,0.10889 z"
   id="path862"
   inkscape:connector-curvature="0" /><path
   style="fill:#a0a0a0;stroke:none;stroke-width:1.99737716"
   d="m 313.96852,466.62166 c -2.66131,-1.72016 -16.75879,-28.65731 -16.75879,-32.02233 0,-1.30181 -0.89882,-2.36692 -1.99738,-2.36692 -1.09856,0 -1.99738,-1.36043 -1.99738,-3.02317 0,-3.30603 -4.00853,-11.23586 -6.66207,-13.17915 -0.91775,-0.67212 -1.37843,-1.57094 -1.02376,-1.99738 1.09313,-1.31431 -14.90103,-33.7321 -16.6426,-33.7321 -0.90062,0 -1.63747,-1.34823 -1.63747,-2.99607 0,-1.64783 -0.95187,-2.99606 -2.11526,-2.99606 -1.1634,0 -1.55582,-0.90517 -0.87208,-2.01148 0.68372,-1.10633 -0.10526,-2.52894 -1.7534,-3.16137 -1.64809,-0.63243 -2.54924,-2.31552 -2.00254,-3.74017 0.54669,-1.42467 -1.30771,-4.4008 -4.12088,-6.61363 -2.81317,-2.21286 -5.11486,-5.32763 -5.11486,-6.92174 0,-1.5941 -1.67994,-4.41871 -3.7332,-6.27687 -3.57647,-3.23667 -3.90616,-2.93523 -7.85307,7.18059 -4.75965,12.19884 -5.83305,15.92838 -7.35051,25.53942 -1.76035,11.1495 -8.9785,26.07175 -16.79937,34.72972 -2.86554,3.17227 -16.44533,14.76151 -30.1773,25.7539 -13.73196,10.99238 -25.62756,20.98037 -26.43466,22.19553 -0.80709,1.21517 -1.48121,1.48429 -1.49803,0.5981 -0.0168,-0.88622 -2.02822,-0.2121 -4.46977,1.49803 -9.00261,6.30566 -15.03845,3.56879 -28.54675,-12.94412 -2.21318,-2.70547 -5.27838,-8.73953 -6.81156,-13.40904 -3.67613,-11.19617 -2.09393,-14.39309 17.02988,-34.40975 8.41948,-8.81257 14.70951,-16.02286 13.97786,-16.02286 -0.73166,0 1.69574,-3.02603 5.39421,-6.72451 3.69848,-3.69846 6.84813,-7.96786 6.99922,-9.48754 0.15111,-1.51967 0.77228,-5.23237 1.38039,-8.25047 0.60812,-3.01807 1.58001,-7.96158 2.15977,-10.98557 1.44419,-7.53295 2.85099,-14.54041 4.11119,-20.47847 0.58286,-2.74639 1.42714,-8.58872 1.8762,-12.98295 0.44906,-4.39423 1.24911,-10.68597 1.77789,-13.98164 1.81257,-11.297 3.6994,-80.89378 2.1931,-80.89378 -2.15838,0 -15.52281,9.47709 -23.23751,16.47836 -2.11838,1.92248 -4.52611,3.49541 -5.35051,3.49541 -0.82441,0 -5.31851,3.49145 -9.98689,7.75877 -4.66838,4.26732 -8.48796,7.33766 -8.48796,6.82298 0,-0.51468 -3.37058,1.72288 -7.49017,4.97235 -12.80079,10.09707 -27.054366,18.39607 -31.595351,18.39607 -4.827317,0 -19.527982,-14.704 -21.773239,-21.77818 -0.893703,-2.8158 -0.130607,-6.31261 2.133882,-9.77831 3.472288,-5.31417 98.672418,-102.58941 98.672418,-100.82322 0,0.49936 2.76542,-1.41902 6.14538,-4.26307 3.37996,-2.84405 7.19994,-5.14514 8.48885,-5.11354 1.28891,0.0316 22.43441,-0.41223 46.98999,-0.98629 l 44.64651,-1.04376 15.2748,10.937 c 8.40115,6.01536 16.69844,12.30152 18.43843,13.96925 1.74,1.66774 4.21175,3.03224 5.49279,3.03224 1.28104,0 2.3309,0.67412 2.33302,1.49804 0.002,0.82392 4.72094,4.6439 10.48623,8.48885 5.76531,3.84495 10.93178,7.44023 11.48106,7.98951 2.31049,2.31048 13.86673,8.0338 15.35747,7.6059 0.89113,-0.2558 3.41787,0.53606 5.61499,1.75967 2.19711,1.22362 4.691,2.24695 5.54196,2.27407 0.85097,0.0271 8.82631,2.47348 17.72299,5.43634 20.3663,6.78261 23.99689,10.19162 23.38769,21.96038 -0.25341,4.89538 -1.28777,8.90069 -2.29858,8.90069 -1.01082,0 -1.36627,1.22893 -0.78989,2.73095 0.57639,1.50202 -1.52383,5.54671 -4.66715,8.9882 -4.72174,5.16963 -7.21019,6.25312 -14.31656,6.23354 -4.73079,-0.013 -13.34032,-1.28521 -19.13225,-2.82704 -5.79196,-1.54183 -10.73547,-2.81621 -10.98558,-2.83195 -0.25013,-0.0158 -3.03515,-1.00967 -6.18897,-2.20875 -3.15382,-1.19909 -7.87262,-2.35713 -10.48623,-2.57344 -2.61361,-0.21631 -4.75202,-1.02465 -4.75202,-1.79632 0,-0.77167 -2.92117,-2.0023 -6.49148,-2.73474 -3.57031,-0.73243 -10.08675,-2.9677 -14.48098,-4.96726 -16.48683,-7.50218 -16.50349,-7.49752 -18.07183,5.0551 -0.77165,6.17593 -0.74678,15.42735 0.0553,20.5587 0.80202,5.13136 1.34958,11.80149 1.21682,14.82252 -0.13283,3.02103 0.52191,5.49279 1.45483,5.49279 0.93291,0 1.69621,1.22445 1.69621,2.72101 0,4.2824 8.79375,17.40294 10.82327,16.14864 1.00462,-0.62096 1.82668,0.48528 1.82668,2.4583 0,4.0622 23.88827,44.5855 26.28291,44.5855 0.85525,0 1.05331,1.30736 0.44014,2.90524 -0.61316,1.59788 0.60918,6.31669 2.71631,10.48623 8.11113,16.05014 12.51645,25.62022 12.51111,27.17911 -0.004,0.89193 2.13534,6.28485 4.75196,11.98426 2.61663,5.6994 7.27848,17.10368 10.35968,25.34286 3.08119,8.23919 6.36634,16.01114 7.30031,17.27101 2.44743,3.3014 -10.51769,13.44678 -28.40963,22.23092 -8.23918,4.04507 -15.42974,7.82249 -15.97902,8.39424 -1.61716,1.68335 -12.78946,2.03229 -15.19924,0.47472 z"
   id="path864"
   inkscape:connector-curvature="0" /><path
   style="fill:#a0a0a0;stroke:none;stroke-width:1.99737716"
   d="m 313.92236,466.69135 c -2.96958,-1.97172 -16.71263,-27.98054 -16.71263,-31.62875 0,-1.5566 -0.89882,-2.83019 -1.99738,-2.83019 -1.09856,0 -1.99738,-1.34822 -1.99738,-2.99606 0,-1.64784 -1.04862,-2.99607 -2.33028,-2.99607 -1.28164,0 -1.75473,-0.57552 -1.05132,-1.27896 0.70344,-0.70341 -0.016,-3.62458 -1.59844,-6.49147 -1.58258,-2.86688 -5.546,-11.05485 -8.80757,-18.19547 -6.64456,-14.54694 -12.42263,-24.63263 -14.68746,-25.63715 -0.83077,-0.36848 -0.99851,-1.49834 -0.37275,-2.51083 0.62576,-1.01249 -0.26229,-2.37813 -1.97345,-3.03477 -1.71116,-0.65662 -2.61856,-1.99097 -2.01645,-2.96521 0.60211,-0.97424 -1.20069,-4.06678 -4.00622,-6.87231 -2.80554,-2.80554 -5.10098,-6.29829 -5.10098,-7.76169 0,-3.50782 -5.29478,-7.81135 -7.74638,-6.29617 -2.30133,1.42229 -9.35444,22.8421 -11.23032,34.10567 -1.67715,10.07032 -9.64289,26.21965 -16.61997,33.69447 -7.77311,8.32765 -53.61407,45.60941 -60.98732,49.60009 -10.6273,5.75189 -15.09941,4.59451 -25.42688,-6.58042 -9.96071,-10.77808 -15.2804,-23.99621 -12.80113,-31.80769 0.77641,-2.44625 8.17668,-11.52858 16.44504,-20.18298 8.26836,-8.65441 14.2823,-15.73527 13.36432,-15.73527 -0.91799,0 1.84162,-3.59528 6.13247,-7.98951 4.29085,-4.39423 7.05967,-7.98951 6.15293,-7.98951 -0.90674,0 -0.53919,-1.33678 0.81678,-2.97064 1.35597,-1.63383 1.95469,-4.30151 1.33049,-5.92815 -0.6242,-1.62665 -0.19704,-3.53718 0.94924,-4.24561 1.14628,-0.70845 1.64082,-2.98338 1.09897,-5.05542 -0.54185,-2.07204 -0.0924,-4.31909 0.99869,-4.99344 1.09113,-0.67436 1.54054,-2.92141 0.99869,-4.99345 -0.54185,-2.07204 -0.0924,-4.31909 0.99868,-4.99344 1.09113,-0.67435 1.54054,-2.9214 0.99869,-4.99345 -0.54185,-2.07204 -0.0924,-4.31909 0.99869,-4.99344 1.09113,-0.67436 1.54054,-2.92141 0.99869,-4.99344 -0.54185,-2.07204 -0.1845,-4.2622 0.79412,-4.86701 0.97861,-0.60482 1.76956,-3.07747 1.75766,-5.49478 -0.012,-2.41731 1.0394,-22.48528 2.33623,-44.59549 1.29683,-22.11021 1.78294,-41.69863 1.08024,-43.52982 -1.08114,-2.81743 -3.04833,-2.01238 -12.79189,5.23492 -6.33285,4.7104 -11.96369,9.02142 -12.51296,9.58003 -0.54928,0.55861 -4.85747,3.63401 -9.57375,6.83421 -4.71628,3.20021 -9.40775,7.24237 -10.42549,8.98258 -1.01774,1.74022 -1.87777,2.41439 -1.91117,1.49816 -0.0334,-0.91623 -3.43132,0.99279 -7.55091,4.24226 -12.80079,10.09707 -27.054366,18.39607 -31.595351,18.39607 -4.827317,0 -19.527982,-14.704 -21.773239,-21.77818 -0.890392,-2.80537 -0.133737,-6.32545 2.101884,-9.77831 3.987479,-6.15855 96.876246,-101.58552 99.284636,-101.99762 0.8684,-0.14859 4.01427,-2.04222 6.99082,-4.20806 4.89724,-3.5634 9.9162,-4.05227 52.77529,-5.1405 44.97539,-1.14197 47.57246,-1.00782 51.51021,2.66075 2.28074,2.12484 9.28003,7.34662 15.55399,11.60394 6.27394,4.25733 12.12596,8.87674 13.00447,10.26535 0.8785,1.38862 2.67614,2.54677 3.99475,2.57367 1.31861,0.0269 5.09393,2.31733 8.3896,5.08982 8.58018,7.21809 26.8985,18.83581 30.71169,19.47774 1.78406,0.30034 5.04136,1.53701 7.23848,2.74816 2.19711,1.21115 4.44416,2.15884 4.99344,2.10597 5.83109,-0.56121 37.9989,12.82799 40.05654,16.67273 2.32465,4.34365 1.9357,19.50511 -0.53963,21.03495 -0.89756,0.55471 -1.21003,1.69117 -0.69441,2.52546 0.51563,0.8343 -1.7803,4.4925 -5.10206,8.12935 l -6.03953,6.61246 -14.33981,-1.46767 c -7.88688,-0.80722 -16.30367,-1.67249 -18.70396,-1.92284 -2.40028,-0.25034 -5.69066,-1.55606 -7.31193,-2.90159 -1.62127,-1.34554 -6.3542,-2.99922 -10.51761,-3.67485 -4.1634,-0.67562 -9.86123,-2.42423 -12.66182,-3.88579 -2.8006,-1.46156 -6.1037,-2.66292 -7.3402,-2.66969 -1.23649,-0.007 -7.33137,-2.26033 -13.54415,-5.00791 -13.41467,-5.9326 -13.75146,-5.57384 -13.81121,14.71138 -0.0637,21.62904 0.859,32.22915 2.8054,32.22915 1.00702,0 1.83094,1.70258 1.83094,3.78352 0,2.08094 2.69646,6.67009 5.99213,10.19812 3.29567,3.52803 5.99213,7.32549 5.99213,8.43881 0,2.24403 11.32888,21.58237 20.79885,35.50349 3.36286,4.9435 5.87418,9.74324 5.58071,10.66611 -0.29346,0.92285 1.79854,6.76518 4.64887,12.98295 7.1626,15.62454 10.10204,22.30274 12.88834,29.28143 1.31583,3.29567 3.65752,8.53673 5.20373,11.64679 1.54623,3.11005 2.81131,6.95824 2.81131,8.55153 0,1.59329 1.29148,3.39248 2.86995,3.99819 1.57846,0.60572 2.43106,2.24501 1.89465,3.64285 -0.5364,1.39787 1.26052,7.59715 3.9932,13.77617 l 4.96847,11.23461 -7.36247,6.12694 c -4.04938,3.36979 -14.10364,9.4365 -22.34282,13.48157 -8.23918,4.04507 -15.42974,7.82249 -15.97902,8.39424 -1.6756,1.74421 -12.83806,2.14281 -15.2454,0.54441 z"
   id="path866"
   inkscape:connector-curvature="0" /><path
   style="fill:#a0a0a0;stroke:none;stroke-width:1.99737716"
   d="m 312.58074,465.29448 c -1.72485,-1.72486 -6.97546,-10.99296 -11.668,-20.59582 -4.69251,-9.60283 -9.46772,-18.12004 -10.61154,-18.92714 -1.14382,-0.8071 -1.45132,-1.48122 -0.68334,-1.49803 0.76799,-0.016 -1.25436,-5.37309 -4.4941,-11.90281 -3.23973,-6.52973 -5.89043,-12.68213 -5.89043,-13.67199 0,-0.98984 -3.59528,-7.36233 -7.98951,-14.16107 -4.39423,-6.79871 -7.98951,-13.2298 -7.98951,-14.29129 0,-1.06149 -0.95187,-1.92998 -2.11526,-1.92998 -1.16339,0 -1.55582,-0.90518 -0.87207,-2.01148 0.68372,-1.10633 -0.1568,-2.54874 -1.86804,-3.20537 -1.71115,-0.65662 -2.60997,-2.00485 -1.99738,-2.99607 0.6126,-0.9912 -0.29138,-2.34141 -2.00885,-3.00046 -1.71746,-0.65905 -3.12266,-2.7897 -3.12266,-4.73476 0,-4.51693 -5.54088,-9.27456 -7.96275,-6.83718 -0.99072,0.99707 -4.18087,10.35164 -7.08921,20.78794 -10.93662,39.2449 -13.27504,42.5974 -51.2098,73.41759 -37.97039,30.84911 -41.36759,31.84115 -55.74911,16.2795 -9.92156,-10.73572 -15.28194,-23.99133 -12.82815,-31.72254 0.76154,-2.39941 7.2526,-10.58294 14.42458,-18.18562 7.17197,-7.60266 12.29075,-13.82303 11.37506,-13.82303 -0.91568,0 2.76164,-4.4941 8.17183,-9.98688 5.4102,-5.49279 9.08634,-9.98689 8.1692,-9.98689 -0.91713,0 -0.55808,-1.33678 0.79789,-2.97064 1.35597,-1.63383 1.95469,-4.30151 1.33049,-5.92815 -0.6242,-1.62665 -0.19704,-3.53718 0.94924,-4.24561 1.14628,-0.70845 1.64082,-2.98338 1.09897,-5.05542 -0.54185,-2.07204 -0.0924,-4.31909 0.99869,-4.99344 1.09113,-0.67436 1.54054,-2.92141 0.99869,-4.99345 -0.54185,-2.07204 -0.0924,-4.31909 0.99868,-4.99344 1.09113,-0.67435 1.54054,-2.9214 0.99869,-4.99345 -0.54185,-2.07204 -0.0924,-4.31909 0.99869,-4.99344 1.09113,-0.67436 1.54054,-2.92141 0.99869,-4.99344 -0.54185,-2.07204 -0.1845,-4.2622 0.79412,-4.86701 0.97861,-0.60482 1.74768,-3.07747 1.70905,-5.49478 -0.0386,-2.41731 0.83094,-19.67505 1.93237,-38.35052 2.71585,-46.04888 2.68673,-50.94095 -0.30296,-50.89344 -1.3732,0.0218 -8.05998,4.29121 -14.85951,9.48754 -6.79954,5.19632 -16.01244,12.09203 -20.47312,15.3238 -4.46068,3.23177 -8.11033,6.60234 -8.11033,7.49016 0,0.88783 -0.76123,1.61423 -1.69163,1.61423 -0.9304,0 -9.0773,4.94351 -18.10423,10.98558 -9.02692,6.04206 -18.46977,10.98557 -20.984104,10.98557 -2.957962,0 -8.101648,-3.7929 -14.573072,-10.74604 -9.857867,-10.59165 -9.962536,-10.83884 -7.285476,-17.20569 2.454913,-5.83852 97.411762,-104.95551 101.168902,-105.60119 0.8684,-0.14924 4.01975,-2.07594 7.003,-4.28155 4.94514,-3.6561 9.59117,-4.11735 52.61703,-5.22374 l 47.19295,-1.21354 10.11364,7.72046 c 35.22332,26.8885 68.24924,48.96207 68.24924,45.61585 0,-0.78817 1.30886,-0.34679 2.90858,0.98085 1.5997,1.32765 3.78465,1.87245 4.85542,1.21068 1.07078,-0.66177 2.54929,-0.22847 3.28559,0.9629 0.73631,1.19137 2.53798,1.70594 4.00372,1.14348 1.46576,-0.56246 2.94777,-0.38068 3.29338,0.40396 0.34562,0.78464 7.15861,3.96485 15.13999,7.06714 7.98138,3.10228 15.39665,7.29423 16.47837,9.31544 2.31042,4.31706 2.63274,18.58479 0.46872,20.7488 -0.82392,0.82392 -1.49943,2.09725 -1.50113,2.82962 -0.002,0.73237 -2.17199,4.37456 -4.82287,8.09375 l -4.81975,6.76217 -16.14961,-1.44272 c -20.26359,-1.81024 -20.5929,-1.87506 -29.56773,-5.82077 -4.08432,-1.79563 -9.19948,-3.26478 -11.36704,-3.26478 -2.16757,0 -4.45379,-0.82967 -5.08051,-1.84371 -0.62671,-1.01403 -3.94607,-2.46014 -7.37635,-3.21355 -3.43029,-0.75342 -9.93643,-3.04988 -14.45807,-5.10325 -15.36273,-6.9765 -15.40963,-6.91574 -15.07123,19.52776 0.27396,21.40797 1.86041,29.38766 6.52127,32.80098 0.91776,0.6721 1.59187,1.79563 1.49804,2.49672 -0.53358,3.98705 0.0559,5.36524 1.82678,4.27079 1.09856,-0.67895 1.99737,0.16682 1.99737,1.8795 0,1.71267 0.89882,3.11394 1.99738,3.11394 1.09856,0 1.99738,1.34823 1.99738,2.99607 0,1.64783 1.04862,2.99606 2.33028,2.99606 1.28164,0 1.7669,0.56337 1.07834,1.25193 -1.60165,1.60166 2.77686,10.12897 14.22826,27.71004 5.0088,7.68991 9.41769,16.04613 9.79753,18.5694 0.78631,5.22342 8.40137,20.7592 11.07776,22.60014 0.97711,0.67212 1.73907,2.02035 1.69323,2.99607 -0.18815,4.00742 2.29313,10.76227 3.95343,10.76227 0.97946,0 1.6744,0.67411 1.54431,1.49803 -0.6827,4.32376 0.57155,8.53853 3.37527,11.34224 1.7263,1.72632 2.67187,3.13874 2.10128,3.13874 -0.57061,0 -0.0975,2.69646 1.0514,5.99213 1.14889,3.29568 2.95283,5.99214 4.00874,5.99214 1.05593,0 1.39199,0.85411 0.74682,1.89804 -0.64519,1.04393 1.0049,7.25805 3.66684,13.80915 l 4.83993,11.91112 -5.28279,4.99552 c -7.52493,7.1158 -40.067,24.21904 -47.46165,24.9446 -3.7051,0.36355 -7.49596,-0.65893 -9.36223,-2.52522 z"
   id="path868"
   inkscape:connector-curvature="0" /><path
   style="fill:#a0a0a0;stroke:none;stroke-width:1.99737716"
   d="m 312.25843,464.97216 c -1.90215,-1.90214 -6.80161,-10.27143 -10.88771,-18.59843 -4.08609,-8.32701 -8.41808,-16.93764 -9.62668,-19.13476 -2.46362,-4.47874 -10.01806,-21.40711 -12.69409,-28.44559 -0.96255,-2.53173 -4.91035,-9.5434 -8.77288,-15.58149 -3.86251,-6.0381 -7.02276,-11.85973 -7.02276,-12.93696 0,-1.07722 -0.89882,-1.95858 -1.99737,-1.95858 -1.09856,0 -1.99738,-1.34823 -1.99738,-2.99607 0,-1.64784 -0.89882,-2.99607 -1.99738,-2.99607 -1.09855,0 -1.99737,-1.34823 -1.99737,-2.99606 0,-1.64784 -0.80138,-2.99607 -1.78085,-2.99607 -0.97947,0 -2.31994,-2.1479 -2.97882,-4.77313 -0.65889,-2.62521 -2.46736,-5.26023 -4.01883,-5.85559 -3.03097,-1.16309 -9.00875,12.86503 -13.46616,31.60118 -6.02367,25.31975 -12.63469,33.81098 -49.61673,63.72806 -36.14429,29.23936 -39.8142,30.28751 -53.93512,15.40403 -8.66598,-9.13396 -14.0199,-20.42292 -14.0199,-29.56152 0,-2.14233 5.80001,-10.57683 12.88891,-18.74335 7.0889,-8.16651 16.22206,-18.69866 20.29591,-23.4048 8.887,-10.26632 13.25377,-18.22162 11.91588,-21.7081 -0.54116,-1.41025 -0.0461,-3.14373 1.10022,-3.85216 1.14628,-0.70845 1.64082,-2.98338 1.09897,-5.05542 -0.54185,-2.07204 -0.0924,-4.31909 0.99869,-4.99344 1.09113,-0.67436 1.54054,-2.92141 0.99869,-4.99345 -0.54185,-2.07204 -0.0924,-4.31909 0.99868,-4.99344 1.09113,-0.67435 1.54054,-2.9214 0.99869,-4.99345 -0.54185,-2.07204 -0.18449,-4.26219 0.79412,-4.86701 0.97861,-0.60481 1.75344,-3.07746 1.72184,-5.49477 -0.0316,-2.41732 0.45055,-7.09157 1.07145,-10.38725 1.69159,-8.97881 5.0565,-85.24211 3.8474,-87.19848 -1.33236,-2.1558 -7.27036,1.02819 -18.86421,10.1151 -5.03509,3.94635 -11.70737,8.97282 -14.8273,11.16994 -3.11993,2.19711 -7.11608,5.34298 -8.88035,6.99082 -7.37057,6.88416 -39.062281,25.9659 -43.125196,25.9659 -2.753229,0 -8.148654,-4.02529 -14.40379,-10.74604 -9.849099,-10.58223 -9.960277,-10.84421 -7.293537,-17.18652 1.489411,-3.54227 20.999719,-24.99702 43.356243,-47.67724 22.35652,-22.68022 43.25796,-44.24491 46.44764,-47.92153 3.18968,-3.67663 9.75273,-9.35383 14.58457,-12.616 l 8.78514,-5.93123 47.27655,-1.12459 47.27654,-1.1246 31.82292,23.17994 c 33.30195,24.25728 45.40373,31.50189 53.79404,32.20316 1.09855,0.0918 3.1209,0.87035 4.4941,1.73007 1.37319,0.85972 3.33344,1.046 4.35608,0.41397 1.02265,-0.63203 2.4618,-0.17439 3.1981,1.01698 0.73631,1.19137 2.59605,1.68365 4.13277,1.09396 1.53672,-0.5897 2.79403,-0.30596 2.79403,0.63053 0,0.93649 4.97449,3.72171 11.0544,6.18937 6.07992,2.46766 12.02401,6.29838 13.2091,8.51272 3.64088,6.80306 0.93727,22.42345 -5.29545,30.59496 l -5.60306,7.34599 -16.17005,-1.30751 c -19.27503,-1.55859 -20.07841,-1.71966 -29.58816,-5.93198 -4.08432,-1.80913 -8.81531,-3.28933 -10.51334,-3.28933 -1.69803,0 -4.64805,-0.8847 -6.55563,-1.96599 -5.3745,-3.04651 -26.97134,-10.42376 -31.43159,-10.73669 -3.63139,-0.25478 -4.04796,1.13544 -4.57964,15.28425 -0.63125,16.79807 2.40432,37.95307 5.60052,39.03045 1.08636,0.36619 1.97519,1.93912 1.97519,3.49541 0,1.55629 0.89882,2.82962 1.99738,2.82962 1.09856,0 1.99737,1.34823 1.99737,2.99607 0,1.64783 0.89882,2.99606 1.99738,2.99606 1.09856,0 1.99738,1.34823 1.99738,2.99607 0,1.64783 0.89882,2.99606 1.99738,2.99606 1.09855,0 1.99737,1.46685 1.99737,3.25966 0,3.26827 2.75341,8.25712 15.83896,28.69838 7.14183,11.15639 7.43848,11.79018 7.8799,16.83503 0.13722,1.56938 1.63,4.23372 3.31706,5.92081 1.68709,1.68706 2.96179,3.32419 2.8327,3.63808 -0.70853,1.72266 2.76415,11.55625 4.08104,11.55625 0.8572,0 2.14872,3.14586 2.87003,6.99082 0.72132,3.84495 2.06955,6.99082 2.99607,6.99082 0.92652,0 2.27475,3.14586 2.99607,6.99082 0.72131,3.84495 2.16959,6.99082 3.21835,6.99082 1.04878,0 1.80044,0.67411 1.67035,1.49803 -0.68271,4.32376 0.57155,8.53853 3.37526,11.34224 1.7263,1.72632 2.63285,3.13874 2.01454,3.13874 -0.61831,0 1.03901,5.7471 3.68292,12.77133 l 4.80711,12.77133 -5.32361,5.03467 c -7.55702,7.14682 -40.0877,24.25619 -47.50252,24.98373 -3.90745,0.3834 -7.51406,-0.67705 -9.68454,-2.84754 z"
   id="path870"
   inkscape:connector-curvature="0" /><path
   style="fill:#ffffff;stroke:none;stroke-width:1.99737716"
   d="m 312.38971,465.10345 c -1.82993,-1.82994 -5.11348,-6.82865 -7.2968,-11.10827 -2.18329,-4.27962 -4.6589,-7.78113 -5.50135,-7.78113 -0.84246,0 -1.67798,-1.94147 -1.85672,-4.31437 -0.17877,-2.37292 -1.49354,-5.0556 -2.92179,-5.96155 -1.42822,-0.90595 -1.87184,-1.66094 -0.9858,-1.67776 0.88601,-0.016 0.27528,-2.50233 -1.3572,-5.52337 -1.6325,-3.02103 -7.46678,-14.93039 -12.9651,-26.46524 -10.68476,-22.41543 -16.3361,-32.55086 -18.74736,-33.62251 -0.82392,-0.3662 -1.49803,-1.93914 -1.49803,-3.49541 0,-1.5563 -0.89882,-2.82963 -1.99738,-2.82963 -1.09855,0 -1.99737,-1.34823 -1.99737,-2.99606 0,-1.64784 -0.80138,-2.99607 -1.78085,-2.99607 -0.97947,0 -2.35981,-2.30677 -3.06743,-5.12615 -0.84932,-3.38395 -2.428,-4.90633 -4.64503,-4.47937 -2.33823,0.45028 -5.09875,6.40652 -9.08727,19.60713 -12.22958,40.47563 -14.30184,43.3739 -53.77381,75.2091 -24.48541,19.74813 -32.45226,24.64504 -40.09525,24.64504 -6.00444,0 -21.98629,-17.45914 -24.90775,-27.21011 -4.42824,-14.78015 -5.64623,-12.58284 29.2038,-52.68498 9.80775,-11.28584 12.0983,-15.31107 13.63922,-23.96853 1.64147,-9.22237 2.07374,-10.96997 3.60313,-14.56713 0.83752,-1.96985 0.97012,-4.13419 0.29466,-4.80966 -0.67547,-0.67545 -0.23654,-2.42288 0.97539,-3.88318 1.21193,-1.46029 1.6928,-3.98595 1.06859,-5.61259 -0.6242,-1.62665 -0.2891,-3.48028 0.74467,-4.11918 1.03376,-0.6389 1.77766,-3.13944 1.6531,-5.55675 -0.12456,-2.41732 0.39323,-7.54098 1.15065,-11.38594 1.74314,-8.84891 4.89579,-82.06561 3.67349,-85.31278 -1.14589,-3.0442 -5.731,-0.2567 -28.46141,17.30301 -9.31373,7.19505 -20.77368,15.53386 -25.46656,18.5307 -4.69287,2.99684 -8.5325,6.51722 -8.5325,7.82306 0,1.30584 -0.56775,1.80651 -1.26167,1.1126 -0.69391,-0.69392 -5.04227,0.95392 -9.66302,3.66186 -4.620751,2.70793 -10.192818,4.92352 -12.382373,4.92352 -2.205113,0 -8.490819,-4.72527 -14.090597,-10.59259 -9.815919,-10.28489 -10.034861,-10.7703 -7.537153,-16.7106 3.066545,-7.29316 94.423303,-101.98985 105.751253,-109.61743 7.85455,-5.2888 8.07472,-5.31415 55.29176,-6.3655 l 47.40582,-1.05555 21.60725,15.89758 c 39.45581,29.02967 52.73289,37.1395 64.55088,39.42854 0.54927,0.10638 2.12221,0.90683 3.49541,1.77876 1.37319,0.87193 3.33344,1.06821 4.35608,0.43618 1.02265,-0.63203 2.4618,-0.17439 3.1981,1.01698 0.73631,1.19137 2.56726,1.69469 4.06881,1.1185 1.50153,-0.57619 3.22545,-0.24608 3.83091,0.73359 0.60547,0.97966 5.99371,4.02123 11.9739,6.75905 8.08053,3.69939 11.21202,6.32842 12.19287,10.23647 2.18455,8.70395 -0.48079,20.71284 -6.28659,28.32464 l -5.47551,7.17875 -16.17633,-1.18547 c -17.67939,-1.29563 -19.48917,-1.62287 -27.79129,-5.02516 -3.09254,-1.26736 -6.34123,-2.30428 -7.2193,-2.30428 -0.87807,0 -11.29761,-3.6439 -23.1545,-8.09756 -17.04409,-6.40206 -21.93703,-7.55216 -23.36821,-5.49279 -3.211,4.62048 -0.28846,44.64662 3.79623,51.99168 2.00024,3.59681 4.3109,6.83926 5.13482,7.20544 0.82392,0.36619 1.49803,1.93913 1.49803,3.49541 0,1.5563 0.89882,2.82962 1.99738,2.82962 1.09856,0 1.99738,1.34823 1.99738,2.99607 0,1.64783 0.89882,2.99606 1.99738,2.99606 1.09855,0 1.99737,1.46685 1.99737,3.25966 0,3.25638 2.62608,8.02233 15.81294,28.69838 3.85354,6.04207 7.16916,11.99796 7.36802,13.23532 0.9163,5.70093 3.22159,10.73321 4.91693,10.73321 1.02451,0 1.86277,1.43425 1.86277,3.18723 0,1.75298 1.21175,5.57296 2.69277,8.48885 1.48101,2.91589 4.25547,8.8969 6.16546,13.29113 1.91001,4.39423 4.74295,10.53411 6.29545,13.64416 1.55248,3.11006 2.82272,7.2694 2.82272,9.24297 0,1.97358 1.31948,4.68341 2.93221,6.02185 1.61272,1.33842 2.85451,3.02141 2.75953,3.73997 -0.53142,4.02072 0.59983,8.3285 2.79711,10.65133 1.3732,1.45167 2.69314,3.98762 2.93321,5.63546 0.24008,1.64784 1.03708,5.69253 1.77109,8.9882 0.73402,3.29567 0.60429,5.30979 -0.28832,4.47582 -0.89259,-0.83396 -3.48722,0.21012 -5.76583,2.32021 -6.77602,6.27482 -39.60034,23.1383 -46.32183,23.79781 -3.82977,0.37577 -7.50668,-0.66968 -9.55326,-2.71625 z"
   id="path872"
   inkscape:connector-curvature="0" /></svg>